<?xml version="1.0" encoding="utf-8"?>
<svg xmlns="http://www.w3.org/2000/svg" xmlns:xlink="http://www.w3.org/1999/xlink" width="600" height="300" viewBox="0 0 2400 1200">
<defs>
  <clipPath id="clip830">
    <rect x="0" y="0" width="2400" height="1200"/>
  </clipPath>
</defs>
<path clip-path="url(#clip830)" d="M0 1200 L2400 1200 L2400 0 L0 0  Z" fill="#ffffff" fill-rule="evenodd" fill-opacity="1"/>
<defs>
  <clipPath id="clip831">
    <rect x="480" y="0" width="1681" height="1200"/>
  </clipPath>
</defs>
<path clip-path="url(#clip830)" d="M108.286 1099.09 L1152.76 1099.09 L1152.76 47.2441 L108.286 47.2441  Z" fill="#ffffff" fill-rule="evenodd" fill-opacity="1"/>
<defs>
  <clipPath id="clip832">
    <rect x="108" y="47" width="1045" height="1053"/>
  </clipPath>
</defs>
<polyline clip-path="url(#clip832)" style="stroke:#000000; stroke-linecap:round; stroke-linejoin:round; stroke-width:2; stroke-opacity:0.1; fill:none" points="137.847,1099.09 137.847,47.2441 "/>
<polyline clip-path="url(#clip832)" style="stroke:#000000; stroke-linecap:round; stroke-linejoin:round; stroke-width:2; stroke-opacity:0.1; fill:none" points="466.296,1099.09 466.296,47.2441 "/>
<polyline clip-path="url(#clip832)" style="stroke:#000000; stroke-linecap:round; stroke-linejoin:round; stroke-width:2; stroke-opacity:0.1; fill:none" points="794.746,1099.09 794.746,47.2441 "/>
<polyline clip-path="url(#clip832)" style="stroke:#000000; stroke-linecap:round; stroke-linejoin:round; stroke-width:2; stroke-opacity:0.1; fill:none" points="1123.2,1099.09 1123.2,47.2441 "/>
<polyline clip-path="url(#clip830)" style="stroke:#000000; stroke-linecap:round; stroke-linejoin:round; stroke-width:4; stroke-opacity:1; fill:none" points="108.286,1069.32 1152.76,1069.32 "/>
<polyline clip-path="url(#clip830)" style="stroke:#000000; stroke-linecap:round; stroke-linejoin:round; stroke-width:4; stroke-opacity:0.1; fill:none" points="137.847,1069.32 137.847,1069.32 "/>
<polyline clip-path="url(#clip830)" style="stroke:#000000; stroke-linecap:round; stroke-linejoin:round; stroke-width:4; stroke-opacity:0.1; fill:none" points="466.296,1069.32 466.296,1069.32 "/>
<polyline clip-path="url(#clip830)" style="stroke:#000000; stroke-linecap:round; stroke-linejoin:round; stroke-width:4; stroke-opacity:0.1; fill:none" points="794.746,1069.32 794.746,1069.32 "/>
<polyline clip-path="url(#clip830)" style="stroke:#000000; stroke-linecap:round; stroke-linejoin:round; stroke-width:4; stroke-opacity:0.1; fill:none" points="1123.2,1069.32 1123.2,1069.32 "/>
<path clip-path="url(#clip830)" d="M127.2 1154.91 Q127.2 1147.47 129.077 1143.42 Q131.696 1137.39 137.872 1137.39 Q139.181 1137.39 140.54 1137.76 Q141.923 1138.11 143.652 1139.47 Q145.406 1140.83 146.468 1143.05 Q148.494 1147.35 148.494 1154.91 Q148.494 1162.29 146.617 1166.32 Q143.874 1172.2 137.822 1172.2 Q135.549 1172.2 133.227 1171.04 Q130.93 1169.88 129.472 1167.09 Q127.2 1162.91 127.2 1154.91 M131.399 1154.29 Q131.399 1161.92 131.943 1164.96 Q132.56 1168.25 134.24 1169.68 Q135.945 1171.09 137.822 1171.09 Q139.848 1171.09 141.528 1169.58 Q143.232 1168.05 143.751 1164.76 Q144.319 1161.53 144.294 1154.29 Q144.294 1147.25 143.8 1144.43 Q143.133 1141.15 141.355 1139.84 Q139.601 1138.5 137.822 1138.5 Q137.155 1138.5 136.439 1138.7 Q135.747 1138.9 134.734 1139.47 Q133.721 1140.04 132.931 1141.44 Q132.165 1142.85 131.795 1144.98 Q131.399 1147.72 131.399 1154.29 Z" fill="#000000" fill-rule="nonzero" fill-opacity="1" /><path clip-path="url(#clip830)" d="M457.947 1142.21 L457.947 1140.63 Q464.024 1140.63 467.161 1137.39 Q468.026 1137.39 468.174 1137.59 Q468.322 1137.79 468.322 1138.7 L468.322 1167.09 Q468.322 1168.59 469.063 1169.06 Q469.804 1169.53 473.04 1169.53 L474.646 1169.53 L474.646 1171.09 Q472.867 1170.94 466.445 1170.94 Q460.022 1170.94 458.268 1171.09 L458.268 1169.53 L459.874 1169.53 Q463.06 1169.53 463.826 1169.09 Q464.592 1168.62 464.592 1167.09 L464.592 1140.88 Q461.949 1142.21 457.947 1142.21 Z" fill="#000000" fill-rule="nonzero" fill-opacity="1" /><path clip-path="url(#clip830)" d="M784.642 1171.09 Q784.642 1170.17 784.716 1169.9 Q784.815 1169.63 785.21 1169.21 L794.919 1158.39 Q800.23 1152.41 800.23 1147.2 Q800.23 1143.82 798.451 1141.39 Q796.697 1138.97 793.461 1138.97 Q791.238 1138.97 789.361 1140.33 Q787.483 1141.69 786.619 1144.11 Q786.767 1144.06 787.286 1144.06 Q788.545 1144.06 789.237 1144.85 Q789.953 1145.64 789.953 1146.71 Q789.953 1148.06 789.064 1148.73 Q788.2 1149.37 787.335 1149.37 Q786.989 1149.37 786.52 1149.3 Q786.075 1149.23 785.359 1148.53 Q784.642 1147.82 784.642 1146.56 Q784.642 1143.02 787.31 1140.21 Q790.003 1137.39 794.104 1137.39 Q798.748 1137.39 801.786 1140.16 Q804.85 1142.9 804.85 1147.2 Q804.85 1148.71 804.38 1150.09 Q803.936 1151.45 803.318 1152.51 Q802.725 1153.57 801.095 1155.28 Q799.464 1156.98 798.155 1158.19 Q796.846 1159.4 793.906 1161.97 L788.545 1167.18 L797.661 1167.18 Q802.108 1167.18 802.453 1166.79 Q802.947 1166.07 803.565 1162.29 L804.85 1162.29 L803.417 1171.09 L784.642 1171.09 Z" fill="#000000" fill-rule="nonzero" fill-opacity="1" /><path clip-path="url(#clip830)" d="M1112.7 1164.27 Q1112.7 1162.76 1113.56 1162.05 Q1114.43 1161.33 1115.54 1161.33 Q1116.7 1161.33 1117.51 1162.1 Q1118.35 1162.84 1118.35 1164.15 Q1118.35 1165.55 1117.37 1166.34 Q1116.4 1167.14 1115.02 1166.94 Q1116.23 1168.96 1118.45 1169.88 Q1120.7 1170.79 1122.78 1170.79 Q1124.95 1170.79 1126.7 1168.91 Q1128.48 1167.04 1128.48 1162.44 Q1128.48 1158.54 1126.95 1156.29 Q1125.44 1154.04 1122.45 1154.04 L1120.23 1154.04 Q1119.47 1154.04 1119.24 1153.97 Q1119.02 1153.89 1119.02 1153.47 Q1119.02 1152.98 1119.79 1152.88 Q1120.55 1152.88 1121.76 1152.73 Q1124.7 1152.63 1126.26 1150.09 Q1127.67 1147.72 1127.67 1144.33 Q1127.67 1141.25 1126.18 1139.96 Q1124.73 1138.65 1122.82 1138.65 Q1121.05 1138.65 1119.09 1139.39 Q1117.14 1140.13 1116.08 1141.79 Q1119.22 1141.79 1119.22 1144.33 Q1119.22 1145.45 1118.5 1146.19 Q1117.81 1146.9 1116.65 1146.9 Q1115.54 1146.9 1114.8 1146.21 Q1114.06 1145.5 1114.06 1144.28 Q1114.06 1141.39 1116.62 1139.39 Q1119.22 1137.39 1123.02 1137.39 Q1126.78 1137.39 1129.54 1139.37 Q1132.34 1141.35 1132.34 1144.38 Q1132.34 1147.37 1130.36 1149.82 Q1128.38 1152.26 1125.25 1153.28 Q1129.1 1154.04 1131.4 1156.66 Q1133.69 1159.25 1133.69 1162.44 Q1133.69 1166.39 1130.58 1169.31 Q1127.47 1172.2 1122.92 1172.2 Q1118.72 1172.2 1115.71 1169.93 Q1112.7 1167.65 1112.7 1164.27 Z" fill="#000000" fill-rule="nonzero" fill-opacity="1" /><polyline clip-path="url(#clip832)" style="stroke:#000000; stroke-linecap:round; stroke-linejoin:round; stroke-width:2; stroke-opacity:0.1; fill:none" points="108.286,1069.32 1152.76,1069.32 "/>
<polyline clip-path="url(#clip832)" style="stroke:#000000; stroke-linecap:round; stroke-linejoin:round; stroke-width:2; stroke-opacity:0.1; fill:none" points="108.286,738.55 1152.76,738.55 "/>
<polyline clip-path="url(#clip832)" style="stroke:#000000; stroke-linecap:round; stroke-linejoin:round; stroke-width:2; stroke-opacity:0.1; fill:none" points="108.286,407.782 1152.76,407.782 "/>
<polyline clip-path="url(#clip832)" style="stroke:#000000; stroke-linecap:round; stroke-linejoin:round; stroke-width:2; stroke-opacity:0.1; fill:none" points="108.286,77.0133 1152.76,77.0133 "/>
<polyline clip-path="url(#clip830)" style="stroke:#000000; stroke-linecap:round; stroke-linejoin:round; stroke-width:4; stroke-opacity:1; fill:none" points="137.847,1099.09 137.847,47.2441 "/>
<polyline clip-path="url(#clip830)" style="stroke:#000000; stroke-linecap:round; stroke-linejoin:round; stroke-width:4; stroke-opacity:0.1; fill:none" points="137.847,1069.32 137.847,1069.32 "/>
<polyline clip-path="url(#clip830)" style="stroke:#000000; stroke-linecap:round; stroke-linejoin:round; stroke-width:4; stroke-opacity:0.1; fill:none" points="137.847,738.55 137.847,738.55 "/>
<polyline clip-path="url(#clip830)" style="stroke:#000000; stroke-linecap:round; stroke-linejoin:round; stroke-width:4; stroke-opacity:0.1; fill:none" points="137.847,407.782 137.847,407.782 "/>
<polyline clip-path="url(#clip830)" style="stroke:#000000; stroke-linecap:round; stroke-linejoin:round; stroke-width:4; stroke-opacity:0.1; fill:none" points="137.847,77.0133 137.847,77.0133 "/>
<path clip-path="url(#clip830)" d="M32.9921 1070.42 Q32.9921 1062.98 34.8696 1058.93 Q37.4881 1052.9 43.664 1052.9 Q44.9733 1052.9 46.3319 1053.27 Q47.7153 1053.62 49.4446 1054.98 Q51.1985 1056.34 52.2607 1058.56 Q54.2864 1062.86 54.2864 1070.42 Q54.2864 1077.8 52.409 1081.83 Q49.6669 1087.71 43.6146 1087.71 Q41.3419 1087.71 39.0197 1086.55 Q36.7223 1085.39 35.2648 1082.6 Q32.9921 1078.42 32.9921 1070.42 M37.1917 1069.8 Q37.1917 1077.43 37.7352 1080.47 Q38.3528 1083.76 40.0326 1085.19 Q41.7371 1086.6 43.6146 1086.6 Q45.6402 1086.6 47.3201 1085.09 Q49.0246 1083.56 49.5434 1080.27 Q50.1116 1077.04 50.0869 1069.8 Q50.0869 1062.76 49.5928 1059.94 Q48.9258 1056.66 47.1472 1055.35 Q45.3932 1054.01 43.6146 1054.01 Q42.9476 1054.01 42.2312 1054.21 Q41.5395 1054.41 40.5267 1054.98 Q39.5138 1055.55 38.7233 1056.95 Q37.9575 1058.36 37.587 1060.49 Q37.1917 1063.23 37.1917 1069.8 Z" fill="#000000" fill-rule="nonzero" fill-opacity="1" /><path clip-path="url(#clip830)" d="M37.587 726.952 L37.587 725.371 Q43.664 725.371 46.8013 722.135 Q47.6659 722.135 47.8141 722.332 Q47.9624 722.53 47.9624 723.444 L47.9624 751.828 Q47.9624 753.335 48.7035 753.805 Q49.4446 754.274 52.6807 754.274 L54.2864 754.274 L54.2864 755.83 Q52.5078 755.682 46.0849 755.682 Q39.662 755.682 37.9081 755.83 L37.9081 754.274 L39.5138 754.274 Q42.7005 754.274 43.4664 753.829 Q44.2322 753.36 44.2322 751.828 L44.2322 725.618 Q41.5889 726.952 37.587 726.952 Z" fill="#000000" fill-rule="nonzero" fill-opacity="1" /><path clip-path="url(#clip830)" d="M34.0791 425.062 Q34.0791 424.148 34.1532 423.876 Q34.252 423.604 34.6473 423.184 L44.3557 412.364 Q49.6669 406.386 49.6669 401.174 Q49.6669 397.789 47.8883 395.368 Q46.1343 392.947 42.8982 392.947 Q40.6749 392.947 38.7974 394.306 Q36.92 395.665 36.0553 398.086 Q36.2036 398.036 36.7223 398.036 Q37.9822 398.036 38.6739 398.827 Q39.3903 399.617 39.3903 400.68 Q39.3903 402.038 38.501 402.705 Q37.6364 403.347 36.7717 403.347 Q36.4259 403.347 35.9565 403.273 Q35.5119 403.199 34.7955 402.508 Q34.0791 401.791 34.0791 400.531 Q34.0791 396.999 36.747 394.183 Q39.4397 391.366 43.5405 391.366 Q48.1847 391.366 51.2232 394.133 Q54.2864 396.875 54.2864 401.174 Q54.2864 402.68 53.8171 404.064 Q53.3724 405.423 52.7548 406.485 Q52.1619 407.547 50.5315 409.252 Q48.9011 410.956 47.5918 412.167 Q46.2825 413.377 43.3428 415.946 L37.9822 421.159 L47.0977 421.159 Q51.5443 421.159 51.8902 420.763 Q52.3843 420.047 53.0018 416.267 L54.2864 416.267 L52.8536 425.062 L34.0791 425.062 Z" fill="#000000" fill-rule="nonzero" fill-opacity="1" /><path clip-path="url(#clip830)" d="M33.2886 87.4751 Q33.2886 85.9682 34.1532 85.2518 Q35.0178 84.5354 36.1295 84.5354 Q37.2905 84.5354 38.1057 85.3012 Q38.9456 86.0423 38.9456 87.3516 Q38.9456 88.7597 37.9575 89.5502 Q36.9941 90.3407 35.6107 90.1431 Q36.8211 92.1688 39.0444 93.0828 Q41.2925 93.9968 43.3675 93.9968 Q45.5414 93.9968 47.2954 92.1194 Q49.074 90.2419 49.074 85.6471 Q49.074 81.744 47.5424 79.4959 Q46.0355 77.2479 43.0464 77.2479 L40.8231 77.2479 Q40.0573 77.2479 39.835 77.1738 Q39.6126 77.0997 39.6126 76.6798 Q39.6126 76.1857 40.3784 76.0869 Q41.1442 76.0869 42.3547 75.9387 Q45.2944 75.8398 46.8507 73.2954 Q48.2588 70.9239 48.2588 67.5395 Q48.2588 64.4516 46.7766 63.167 Q45.3191 61.8577 43.4169 61.8577 Q41.6383 61.8577 39.6867 62.5988 Q37.7352 63.3399 36.6729 64.9951 Q39.8103 64.9951 39.8103 67.5395 Q39.8103 68.6512 39.0939 69.3923 Q38.4022 70.1087 37.2411 70.1087 Q36.1295 70.1087 35.3884 69.417 Q34.6473 68.7006 34.6473 67.4901 Q34.6473 64.5998 37.2164 62.5988 Q39.8103 60.5979 43.6146 60.5979 Q47.3695 60.5979 50.1363 62.5741 Q52.9277 64.5504 52.9277 67.5889 Q52.9277 70.578 50.9515 73.0237 Q48.9752 75.4693 45.8379 76.4821 Q49.6916 77.2479 51.989 79.8665 Q54.2864 82.4603 54.2864 85.6471 Q54.2864 89.5996 51.1738 92.5146 Q48.0612 95.4049 43.5158 95.4049 Q39.3162 95.4049 36.3024 93.1322 Q33.2886 90.8595 33.2886 87.4751 Z" fill="#000000" fill-rule="nonzero" fill-opacity="1" /><polyline clip-path="url(#clip832)" style="stroke:#009af9; stroke-linecap:round; stroke-linejoin:round; stroke-width:4; stroke-opacity:1; fill:none" points="137.847,1069.32 794.746,77.0133 "/>
<polyline clip-path="url(#clip832)" style="stroke:#009af9; stroke-linecap:round; stroke-linejoin:round; stroke-width:4; stroke-opacity:1; fill:none" points="759.865,97.0957 794.746,77.0133 789.883,116.968 "/>
<polyline clip-path="url(#clip832)" style="stroke:#009af9; stroke-linecap:round; stroke-linejoin:round; stroke-width:4; stroke-opacity:1; fill:none" points="794.746,77.0133 137.847,1069.32 "/>
<polyline clip-path="url(#clip832)" style="stroke:#e26f46; stroke-linecap:round; stroke-linejoin:round; stroke-width:4; stroke-opacity:1; fill:none" stroke-dasharray="16, 10" points="137.847,1069.32 1123.2,407.782 "/>
<polyline clip-path="url(#clip832)" style="stroke:#e26f46; stroke-linecap:round; stroke-linejoin:round; stroke-width:4; stroke-opacity:1; fill:none" points="1083.27,412.904 1123.2,407.782 1103.34,442.793 "/>
<polyline clip-path="url(#clip832)" style="stroke:#e26f46; stroke-linecap:round; stroke-linejoin:round; stroke-width:4; stroke-opacity:1; fill:none" stroke-dasharray="16, 10" points="1123.2,407.782 137.847,1069.32 "/>
<path clip-path="url(#clip830)" d="M860.654 237.826 L1117.94 237.826 L1117.94 82.3056 L860.654 82.3056  Z" fill="#ffffff" fill-rule="evenodd" fill-opacity="1"/>
<polyline clip-path="url(#clip830)" style="stroke:#000000; stroke-linecap:round; stroke-linejoin:round; stroke-width:4; stroke-opacity:1; fill:none" points="860.654,237.826 1117.94,237.826 1117.94,82.3056 860.654,82.3056 860.654,237.826 "/>
<polyline clip-path="url(#clip830)" style="stroke:#009af9; stroke-linecap:round; stroke-linejoin:round; stroke-width:4; stroke-opacity:1; fill:none" points="872.26,134.146 941.891,134.146 "/>
<path clip-path="url(#clip830)" d="M979.434 120.617 Q979.434 120.978 979.073 121.092 Q977.204 121.732 976.351 123.519 Q976.237 123.814 975.909 123.814 Q975.695 123.814 975.564 123.666 Q975.417 123.502 975.417 123.306 Q975.417 123.175 975.45 123.109 Q975.925 122.01 976.958 121.125 L965.973 121.125 Q965.776 121.125 965.629 120.978 Q965.465 120.814 965.465 120.617 Q965.465 120.42 965.629 120.273 Q965.776 120.125 965.973 120.125 L976.958 120.125 Q975.925 119.24 975.45 118.141 Q975.417 118.075 975.417 117.944 Q975.417 117.748 975.564 117.6 Q975.695 117.436 975.909 117.436 Q976.237 117.436 976.351 117.731 Q977.204 119.518 979.073 120.158 Q979.434 120.273 979.434 120.617 Z" fill="#000000" fill-rule="nonzero" fill-opacity="1" /><path clip-path="url(#clip830)" d="M980.16 143.225 Q979.551 146.246 978.731 147.98 Q977.396 150.626 975.171 150.626 Q973.625 150.626 972.454 149.76 Q971.306 148.87 970.908 147.394 Q970.463 147.98 970.065 148.378 Q969.69 148.776 968.964 149.385 Q968.238 149.97 967.254 150.298 Q966.294 150.626 965.193 150.626 Q964.35 150.626 963.577 150.462 Q962.804 150.322 961.984 149.924 Q961.188 149.502 960.602 148.87 Q960.04 148.237 959.665 147.207 Q959.291 146.176 959.291 144.864 Q959.291 143.225 959.923 141 Q960.579 138.775 962.078 134.793 Q962.898 132.685 962.898 131.514 Q962.898 130.975 962.781 130.624 Q962.663 130.272 962.429 130.155 Q962.218 130.015 962.078 129.991 Q961.937 129.944 961.703 129.944 Q960.251 129.944 958.986 131.42 Q957.721 132.896 956.855 135.894 Q956.667 136.479 956.55 136.62 Q956.433 136.76 956.082 136.76 Q955.496 136.737 955.496 136.268 Q955.496 136.081 955.707 135.355 Q955.918 134.605 956.41 133.504 Q956.925 132.38 957.628 131.373 Q958.33 130.342 959.431 129.616 Q960.555 128.89 961.844 128.89 Q963.6 128.89 964.678 130.038 Q965.779 131.162 965.779 132.825 Q965.779 133.856 964.959 135.847 Q962.359 142.756 962.359 145.637 Q962.359 149.549 965.334 149.549 Q966.317 149.549 967.231 149.151 Q968.168 148.753 968.777 148.19 Q969.386 147.628 969.854 147.019 Q970.346 146.41 970.557 146.012 Q970.791 145.614 970.814 145.52 L974.398 131.092 Q974.539 130.53 974.796 130.155 Q975.077 129.757 975.405 129.616 Q975.733 129.476 975.921 129.452 Q976.108 129.406 976.272 129.406 Q976.857 129.406 977.256 129.757 Q977.677 130.108 977.677 130.717 Q977.677 130.834 977.537 131.396 Q977.42 131.935 977.232 132.732 Q977.045 133.504 976.951 133.926 Q976.202 136.877 976.131 137.182 L974.796 142.358 Q974.726 142.663 974.492 143.646 Q974.281 144.63 974.164 145.145 Q974.047 145.637 973.93 146.317 Q973.836 146.972 973.836 147.347 Q973.836 148.518 974.187 149.034 Q974.539 149.549 975.312 149.549 Q976.038 149.549 976.6 149.057 Q977.185 148.542 977.63 147.558 Q978.075 146.551 978.333 145.731 Q978.591 144.911 978.919 143.623 Q979.036 143.061 979.129 142.92 Q979.247 142.756 979.574 142.756 Q980.16 142.756 980.16 143.225 Z" fill="#000000" fill-rule="nonzero" fill-opacity="1" /><polyline clip-path="url(#clip830)" style="stroke:#e26f46; stroke-linecap:round; stroke-linejoin:round; stroke-width:4; stroke-opacity:1; fill:none" stroke-dasharray="16, 10" points="872.26,185.986 941.891,185.986 "/>
<path clip-path="url(#clip830)" d="M987.552 168.874 L984.531 181.101 Q984.32 181.874 984.18 181.967 Q984.062 182.061 983.688 182.061 Q982.962 182.061 982.962 181.569 Q982.962 181.522 983.032 180.913 Q983.102 180.281 983.102 179.133 Q983.102 174.894 981.041 172.388 Q979.003 169.881 975.373 169.881 Q972.234 169.881 969.072 171.474 Q965.934 173.067 963.685 175.667 Q961.999 177.634 960.757 180.117 Q959.539 182.6 958.954 184.872 Q958.391 187.144 958.134 188.854 Q957.876 190.563 957.876 191.805 Q957.876 193.608 958.251 195.131 Q958.649 196.653 959.352 197.731 Q960.054 198.785 960.945 199.604 Q961.858 200.401 962.912 200.869 Q963.989 201.338 965.067 201.572 Q966.144 201.783 967.269 201.783 Q971.789 201.783 976.099 198.269 Q979.519 195.388 980.947 190.68 Q981.064 190.212 981.556 190.212 Q982.142 190.212 982.142 190.68 Q982.142 190.774 982.025 191.243 Q981.908 191.688 981.556 192.601 Q981.205 193.491 980.666 194.498 Q980.128 195.505 979.12 196.77 Q978.113 198.035 976.872 199.136 Q974.764 200.963 972.094 202.111 Q969.423 203.258 966.496 203.258 Q962.842 203.258 959.891 201.642 Q956.939 200.026 955.206 197.005 Q953.496 193.983 953.496 190.118 Q953.496 186.043 955.37 182.038 Q957.244 178.032 960.218 175.058 Q963.193 172.083 967.128 170.233 Q971.063 168.382 974.998 168.382 Q976.497 168.382 977.832 168.78 Q979.167 169.179 979.964 169.671 Q980.783 170.162 981.509 170.888 Q982.236 171.591 982.47 171.919 Q982.727 172.247 982.962 172.645 L986.311 168.968 Q986.897 168.382 987.037 168.382 Q987.318 168.382 987.435 168.546 Q987.552 168.71 987.552 168.874 Z" fill="#000000" fill-rule="nonzero" fill-opacity="1" /><path clip-path="url(#clip830)" d="M1013.39 172.734 Q1013.39 173.094 1013.03 173.209 Q1011.16 173.848 1010.31 175.636 Q1010.19 175.931 1009.86 175.931 Q1009.65 175.931 1009.52 175.783 Q1009.37 175.619 1009.37 175.422 Q1009.37 175.291 1009.4 175.226 Q1009.88 174.127 1010.91 173.242 L999.928 173.242 Q999.731 173.242 999.584 173.094 Q999.42 172.93 999.42 172.734 Q999.42 172.537 999.584 172.389 Q999.731 172.242 999.928 172.242 L1010.91 172.242 Q1009.88 171.356 1009.4 170.258 Q1009.37 170.192 1009.37 170.061 Q1009.37 169.864 1009.52 169.717 Q1009.65 169.553 1009.86 169.553 Q1010.19 169.553 1010.31 169.848 Q1011.16 171.635 1013.03 172.274 Q1013.39 172.389 1013.39 172.734 Z" fill="#000000" fill-rule="nonzero" fill-opacity="1" /><path clip-path="url(#clip830)" d="M1014.12 195.342 Q1013.51 198.363 1012.69 200.096 Q1011.35 202.743 1009.13 202.743 Q1007.58 202.743 1006.41 201.876 Q1005.26 200.986 1004.86 199.511 Q1004.42 200.096 1004.02 200.494 Q1003.65 200.893 1002.92 201.502 Q1002.19 202.087 1001.21 202.415 Q1000.25 202.743 999.148 202.743 Q998.305 202.743 997.532 202.579 Q996.759 202.439 995.939 202.04 Q995.143 201.619 994.557 200.986 Q993.995 200.354 993.62 199.323 Q993.246 198.293 993.246 196.981 Q993.246 195.342 993.878 193.116 Q994.534 190.891 996.033 186.909 Q996.853 184.801 996.853 183.63 Q996.853 183.092 996.736 182.74 Q996.619 182.389 996.384 182.272 Q996.174 182.131 996.033 182.108 Q995.892 182.061 995.658 182.061 Q994.206 182.061 992.941 183.537 Q991.676 185.012 990.81 188.01 Q990.622 188.596 990.505 188.736 Q990.388 188.877 990.037 188.877 Q989.451 188.854 989.451 188.385 Q989.451 188.198 989.662 187.472 Q989.873 186.722 990.365 185.621 Q990.88 184.497 991.583 183.49 Q992.285 182.459 993.386 181.733 Q994.511 181.007 995.799 181.007 Q997.555 181.007 998.633 182.155 Q999.734 183.279 999.734 184.942 Q999.734 185.973 998.914 187.963 Q996.314 194.873 996.314 197.754 Q996.314 201.666 999.289 201.666 Q1000.27 201.666 1001.19 201.267 Q1002.12 200.869 1002.73 200.307 Q1003.34 199.745 1003.81 199.136 Q1004.3 198.527 1004.51 198.129 Q1004.75 197.731 1004.77 197.637 L1008.35 183.209 Q1008.49 182.647 1008.75 182.272 Q1009.03 181.874 1009.36 181.733 Q1009.69 181.593 1009.88 181.569 Q1010.06 181.522 1010.23 181.522 Q1010.81 181.522 1011.21 181.874 Q1011.63 182.225 1011.63 182.834 Q1011.63 182.951 1011.49 183.513 Q1011.37 184.052 1011.19 184.848 Q1011 185.621 1010.91 186.043 Q1010.16 188.994 1010.09 189.299 L1008.75 194.475 Q1008.68 194.779 1008.45 195.763 Q1008.24 196.747 1008.12 197.262 Q1008 197.754 1007.88 198.433 Q1007.79 199.089 1007.79 199.464 Q1007.79 200.635 1008.14 201.15 Q1008.49 201.666 1009.27 201.666 Q1009.99 201.666 1010.55 201.174 Q1011.14 200.658 1011.59 199.675 Q1012.03 198.668 1012.29 197.848 Q1012.55 197.028 1012.87 195.74 Q1012.99 195.178 1013.08 195.037 Q1013.2 194.873 1013.53 194.873 Q1014.12 194.873 1014.12 195.342 Z" fill="#000000" fill-rule="nonzero" fill-opacity="1" /><path clip-path="url(#clip830)" d="M1028.42 194.92 Q1028.47 194.334 1029.38 194.334 L1058.78 194.334 Q1060.16 194.334 1060.18 194.873 Q1060.18 195.459 1058.87 195.435 L1029.71 195.435 Q1028.42 195.459 1028.42 194.92 M1028.42 185.551 Q1028.42 184.965 1029.43 184.989 L1058.73 184.989 Q1060.16 184.989 1060.18 185.551 Q1060.18 186.09 1058.96 186.09 L1029.38 186.09 Q1028.42 186.09 1028.42 185.551 Z" fill="#000000" fill-rule="nonzero" fill-opacity="1" /><path clip-path="url(#clip830)" d="M1104.61 172.734 Q1104.61 173.094 1104.25 173.209 Q1102.38 173.848 1101.53 175.636 Q1101.41 175.931 1101.08 175.931 Q1100.87 175.931 1100.74 175.783 Q1100.59 175.619 1100.59 175.422 Q1100.59 175.291 1100.62 175.226 Q1101.1 174.127 1102.13 173.242 L1091.15 173.242 Q1090.95 173.242 1090.8 173.094 Q1090.64 172.93 1090.64 172.734 Q1090.64 172.537 1090.8 172.389 Q1090.95 172.242 1091.15 172.242 L1102.13 172.242 Q1101.1 171.356 1100.62 170.258 Q1100.59 170.192 1100.59 170.061 Q1100.59 169.864 1100.74 169.717 Q1100.87 169.553 1101.08 169.553 Q1101.41 169.553 1101.53 169.848 Q1102.38 171.635 1104.25 172.274 Q1104.61 172.389 1104.61 172.734 Z" fill="#000000" fill-rule="nonzero" fill-opacity="1" /><path clip-path="url(#clip830)" d="M1102.73 184.356 Q1102.73 184.965 1102.56 186.16 Q1102.4 187.354 1102 189.088 Q1101.6 190.821 1101.02 192.648 Q1100.46 194.475 1099.57 196.302 Q1098.68 198.105 1097.62 199.534 Q1096.57 200.963 1095.09 201.853 Q1093.62 202.743 1091.95 202.743 Q1091.18 202.743 1090.43 202.626 Q1089.68 202.509 1088.74 202.134 Q1087.81 201.759 1087.13 201.15 Q1086.45 200.518 1085.98 199.394 Q1085.51 198.269 1085.51 196.794 Q1085.51 195.271 1086.07 193.234 Q1086.66 191.172 1088.25 186.956 Q1089.07 184.778 1089.07 183.583 Q1089.07 183.045 1088.96 182.717 Q1088.84 182.365 1088.6 182.248 Q1088.37 182.108 1088.23 182.084 Q1088.11 182.061 1087.88 182.061 Q1086.59 182.061 1085.28 183.396 Q1083.97 184.731 1083.03 188.01 Q1082.84 188.596 1082.73 188.736 Q1082.61 188.877 1082.26 188.877 Q1081.67 188.854 1081.67 188.385 Q1081.67 188.245 1081.84 187.706 Q1082 187.144 1082.3 186.3 Q1082.61 185.434 1083.15 184.544 Q1083.69 183.63 1084.34 182.834 Q1085.02 182.038 1085.98 181.522 Q1086.94 181.007 1088.02 181.007 Q1089.78 181.007 1090.85 182.155 Q1091.95 183.279 1091.95 184.942 Q1091.95 185.855 1091.37 187.331 Q1090.38 190.001 1089.94 191.289 Q1089.49 192.578 1089.03 194.405 Q1088.58 196.232 1088.58 197.496 Q1088.58 199.417 1089.47 200.541 Q1090.36 201.666 1092.14 201.666 Q1093.73 201.666 1095.16 200.518 Q1096.61 199.347 1097.58 197.684 Q1098.54 195.997 1099.26 194.124 Q1099.99 192.226 1100.32 190.798 Q1100.67 189.345 1100.67 188.666 Q1100.67 186.3 1099.05 184.755 Q1098.61 184.31 1098.44 184.028 Q1098.28 183.747 1098.28 183.302 Q1098.28 182.483 1099 181.757 Q1099.75 181.007 1100.62 181.007 Q1101.42 181.007 1102.07 181.803 Q1102.73 182.6 1102.73 184.356 Z" fill="#000000" fill-rule="nonzero" fill-opacity="1" /><path clip-path="url(#clip830)" d="M1308.29 1099.09 L2352.76 1099.09 L2352.76 47.2441 L1308.29 47.2441  Z" fill="#ffffff" fill-rule="evenodd" fill-opacity="1"/>
<defs>
  <clipPath id="clip833">
    <rect x="1308" y="47" width="1045" height="1053"/>
  </clipPath>
</defs>
<polyline clip-path="url(#clip833)" style="stroke:#000000; stroke-linecap:round; stroke-linejoin:round; stroke-width:2; stroke-opacity:0.1; fill:none" points="1337.85,1099.09 1337.85,47.2441 "/>
<polyline clip-path="url(#clip833)" style="stroke:#000000; stroke-linecap:round; stroke-linejoin:round; stroke-width:2; stroke-opacity:0.1; fill:none" points="1666.3,1099.09 1666.3,47.2441 "/>
<polyline clip-path="url(#clip833)" style="stroke:#000000; stroke-linecap:round; stroke-linejoin:round; stroke-width:2; stroke-opacity:0.1; fill:none" points="1994.75,1099.09 1994.75,47.2441 "/>
<polyline clip-path="url(#clip833)" style="stroke:#000000; stroke-linecap:round; stroke-linejoin:round; stroke-width:2; stroke-opacity:0.1; fill:none" points="2323.2,1099.09 2323.2,47.2441 "/>
<polyline clip-path="url(#clip830)" style="stroke:#000000; stroke-linecap:round; stroke-linejoin:round; stroke-width:4; stroke-opacity:1; fill:none" points="1308.29,1069.32 2352.76,1069.32 "/>
<polyline clip-path="url(#clip830)" style="stroke:#000000; stroke-linecap:round; stroke-linejoin:round; stroke-width:4; stroke-opacity:0.1; fill:none" points="1337.85,1069.32 1337.85,1069.32 "/>
<polyline clip-path="url(#clip830)" style="stroke:#000000; stroke-linecap:round; stroke-linejoin:round; stroke-width:4; stroke-opacity:0.1; fill:none" points="1666.3,1069.32 1666.3,1069.32 "/>
<polyline clip-path="url(#clip830)" style="stroke:#000000; stroke-linecap:round; stroke-linejoin:round; stroke-width:4; stroke-opacity:0.1; fill:none" points="1994.75,1069.32 1994.75,1069.32 "/>
<polyline clip-path="url(#clip830)" style="stroke:#000000; stroke-linecap:round; stroke-linejoin:round; stroke-width:4; stroke-opacity:0.1; fill:none" points="2323.2,1069.32 2323.2,1069.32 "/>
<path clip-path="url(#clip830)" d="M1327.2 1154.91 Q1327.2 1147.47 1329.08 1143.42 Q1331.7 1137.39 1337.87 1137.39 Q1339.18 1137.39 1340.54 1137.76 Q1341.92 1138.11 1343.65 1139.47 Q1345.41 1140.83 1346.47 1143.05 Q1348.49 1147.35 1348.49 1154.91 Q1348.49 1162.29 1346.62 1166.32 Q1343.87 1172.2 1337.82 1172.2 Q1335.55 1172.2 1333.23 1171.04 Q1330.93 1169.88 1329.47 1167.09 Q1327.2 1162.91 1327.2 1154.91 M1331.4 1154.29 Q1331.4 1161.92 1331.94 1164.96 Q1332.56 1168.25 1334.24 1169.68 Q1335.94 1171.09 1337.82 1171.09 Q1339.85 1171.09 1341.53 1169.58 Q1343.23 1168.05 1343.75 1164.76 Q1344.32 1161.53 1344.29 1154.29 Q1344.29 1147.25 1343.8 1144.43 Q1343.13 1141.15 1341.35 1139.84 Q1339.6 1138.5 1337.82 1138.5 Q1337.16 1138.5 1336.44 1138.7 Q1335.75 1138.9 1334.73 1139.47 Q1333.72 1140.04 1332.93 1141.44 Q1332.17 1142.85 1331.79 1144.98 Q1331.4 1147.72 1331.4 1154.29 Z" fill="#000000" fill-rule="nonzero" fill-opacity="1" /><path clip-path="url(#clip830)" d="M1657.95 1142.21 L1657.95 1140.63 Q1664.02 1140.63 1667.16 1137.39 Q1668.03 1137.39 1668.17 1137.59 Q1668.32 1137.79 1668.32 1138.7 L1668.32 1167.09 Q1668.32 1168.59 1669.06 1169.06 Q1669.8 1169.53 1673.04 1169.53 L1674.65 1169.53 L1674.65 1171.09 Q1672.87 1170.94 1666.44 1170.94 Q1660.02 1170.94 1658.27 1171.09 L1658.27 1169.53 L1659.87 1169.53 Q1663.06 1169.53 1663.83 1169.09 Q1664.59 1168.62 1664.59 1167.09 L1664.59 1140.88 Q1661.95 1142.21 1657.95 1142.21 Z" fill="#000000" fill-rule="nonzero" fill-opacity="1" /><path clip-path="url(#clip830)" d="M1984.64 1171.09 Q1984.64 1170.17 1984.72 1169.9 Q1984.82 1169.63 1985.21 1169.21 L1994.92 1158.39 Q2000.23 1152.41 2000.23 1147.2 Q2000.23 1143.82 1998.45 1141.39 Q1996.7 1138.97 1993.46 1138.97 Q1991.24 1138.97 1989.36 1140.33 Q1987.48 1141.69 1986.62 1144.11 Q1986.77 1144.06 1987.29 1144.06 Q1988.55 1144.06 1989.24 1144.85 Q1989.95 1145.64 1989.95 1146.71 Q1989.95 1148.06 1989.06 1148.73 Q1988.2 1149.37 1987.33 1149.37 Q1986.99 1149.37 1986.52 1149.3 Q1986.08 1149.23 1985.36 1148.53 Q1984.64 1147.82 1984.64 1146.56 Q1984.64 1143.02 1987.31 1140.21 Q1990 1137.39 1994.1 1137.39 Q1998.75 1137.39 2001.79 1140.16 Q2004.85 1142.9 2004.85 1147.2 Q2004.85 1148.71 2004.38 1150.09 Q2003.94 1151.45 2003.32 1152.51 Q2002.73 1153.57 2001.09 1155.28 Q1999.46 1156.98 1998.15 1158.19 Q1996.85 1159.4 1993.91 1161.97 L1988.55 1167.18 L1997.66 1167.18 Q2002.11 1167.18 2002.45 1166.79 Q2002.95 1166.07 2003.57 1162.29 L2004.85 1162.29 L2003.42 1171.09 L1984.64 1171.09 Z" fill="#000000" fill-rule="nonzero" fill-opacity="1" /><path clip-path="url(#clip830)" d="M2312.7 1164.27 Q2312.7 1162.76 2313.56 1162.05 Q2314.43 1161.33 2315.54 1161.33 Q2316.7 1161.33 2317.51 1162.1 Q2318.35 1162.84 2318.35 1164.15 Q2318.35 1165.55 2317.37 1166.34 Q2316.4 1167.14 2315.02 1166.94 Q2316.23 1168.96 2318.45 1169.88 Q2320.7 1170.79 2322.78 1170.79 Q2324.95 1170.79 2326.7 1168.91 Q2328.48 1167.04 2328.48 1162.44 Q2328.48 1158.54 2326.95 1156.29 Q2325.44 1154.04 2322.45 1154.04 L2320.23 1154.04 Q2319.47 1154.04 2319.24 1153.97 Q2319.02 1153.89 2319.02 1153.47 Q2319.02 1152.98 2319.79 1152.88 Q2320.55 1152.88 2321.76 1152.73 Q2324.7 1152.63 2326.26 1150.09 Q2327.67 1147.72 2327.67 1144.33 Q2327.67 1141.25 2326.18 1139.96 Q2324.73 1138.65 2322.82 1138.65 Q2321.05 1138.65 2319.09 1139.39 Q2317.14 1140.13 2316.08 1141.79 Q2319.22 1141.79 2319.22 1144.33 Q2319.22 1145.45 2318.5 1146.19 Q2317.81 1146.9 2316.65 1146.9 Q2315.54 1146.9 2314.8 1146.21 Q2314.06 1145.5 2314.06 1144.28 Q2314.06 1141.39 2316.62 1139.39 Q2319.22 1137.39 2323.02 1137.39 Q2326.78 1137.39 2329.54 1139.37 Q2332.34 1141.35 2332.34 1144.38 Q2332.34 1147.37 2330.36 1149.82 Q2328.38 1152.26 2325.25 1153.28 Q2329.1 1154.04 2331.4 1156.66 Q2333.69 1159.25 2333.69 1162.44 Q2333.69 1166.39 2330.58 1169.31 Q2327.47 1172.2 2322.92 1172.2 Q2318.72 1172.2 2315.71 1169.93 Q2312.7 1167.65 2312.7 1164.27 Z" fill="#000000" fill-rule="nonzero" fill-opacity="1" /><polyline clip-path="url(#clip833)" style="stroke:#000000; stroke-linecap:round; stroke-linejoin:round; stroke-width:2; stroke-opacity:0.1; fill:none" points="1308.29,1069.32 2352.76,1069.32 "/>
<polyline clip-path="url(#clip833)" style="stroke:#000000; stroke-linecap:round; stroke-linejoin:round; stroke-width:2; stroke-opacity:0.1; fill:none" points="1308.29,738.55 2352.76,738.55 "/>
<polyline clip-path="url(#clip833)" style="stroke:#000000; stroke-linecap:round; stroke-linejoin:round; stroke-width:2; stroke-opacity:0.1; fill:none" points="1308.29,407.782 2352.76,407.782 "/>
<polyline clip-path="url(#clip833)" style="stroke:#000000; stroke-linecap:round; stroke-linejoin:round; stroke-width:2; stroke-opacity:0.1; fill:none" points="1308.29,77.0133 2352.76,77.0133 "/>
<polyline clip-path="url(#clip830)" style="stroke:#000000; stroke-linecap:round; stroke-linejoin:round; stroke-width:4; stroke-opacity:1; fill:none" points="1337.85,1099.09 1337.85,47.2441 "/>
<polyline clip-path="url(#clip830)" style="stroke:#000000; stroke-linecap:round; stroke-linejoin:round; stroke-width:4; stroke-opacity:0.1; fill:none" points="1337.85,1069.32 1337.85,1069.32 "/>
<polyline clip-path="url(#clip830)" style="stroke:#000000; stroke-linecap:round; stroke-linejoin:round; stroke-width:4; stroke-opacity:0.1; fill:none" points="1337.85,738.55 1337.85,738.55 "/>
<polyline clip-path="url(#clip830)" style="stroke:#000000; stroke-linecap:round; stroke-linejoin:round; stroke-width:4; stroke-opacity:0.1; fill:none" points="1337.85,407.782 1337.85,407.782 "/>
<polyline clip-path="url(#clip830)" style="stroke:#000000; stroke-linecap:round; stroke-linejoin:round; stroke-width:4; stroke-opacity:0.1; fill:none" points="1337.85,77.0133 1337.85,77.0133 "/>
<path clip-path="url(#clip830)" d="M1232.99 1070.42 Q1232.99 1062.98 1234.87 1058.93 Q1237.49 1052.9 1243.66 1052.9 Q1244.97 1052.9 1246.33 1053.27 Q1247.72 1053.62 1249.44 1054.98 Q1251.2 1056.34 1252.26 1058.56 Q1254.29 1062.86 1254.29 1070.42 Q1254.29 1077.8 1252.41 1081.83 Q1249.67 1087.71 1243.61 1087.71 Q1241.34 1087.71 1239.02 1086.55 Q1236.72 1085.39 1235.26 1082.6 Q1232.99 1078.42 1232.99 1070.42 M1237.19 1069.8 Q1237.19 1077.43 1237.74 1080.47 Q1238.35 1083.76 1240.03 1085.19 Q1241.74 1086.6 1243.61 1086.6 Q1245.64 1086.6 1247.32 1085.09 Q1249.02 1083.56 1249.54 1080.27 Q1250.11 1077.04 1250.09 1069.8 Q1250.09 1062.76 1249.59 1059.94 Q1248.93 1056.66 1247.15 1055.35 Q1245.39 1054.01 1243.61 1054.01 Q1242.95 1054.01 1242.23 1054.21 Q1241.54 1054.41 1240.53 1054.98 Q1239.51 1055.55 1238.72 1056.95 Q1237.96 1058.36 1237.59 1060.49 Q1237.19 1063.23 1237.19 1069.8 Z" fill="#000000" fill-rule="nonzero" fill-opacity="1" /><path clip-path="url(#clip830)" d="M1237.59 726.952 L1237.59 725.371 Q1243.66 725.371 1246.8 722.135 Q1247.67 722.135 1247.81 722.332 Q1247.96 722.53 1247.96 723.444 L1247.96 751.828 Q1247.96 753.335 1248.7 753.805 Q1249.44 754.274 1252.68 754.274 L1254.29 754.274 L1254.29 755.83 Q1252.51 755.682 1246.08 755.682 Q1239.66 755.682 1237.91 755.83 L1237.91 754.274 L1239.51 754.274 Q1242.7 754.274 1243.47 753.829 Q1244.23 753.36 1244.23 751.828 L1244.23 725.618 Q1241.59 726.952 1237.59 726.952 Z" fill="#000000" fill-rule="nonzero" fill-opacity="1" /><path clip-path="url(#clip830)" d="M1234.08 425.062 Q1234.08 424.148 1234.15 423.876 Q1234.25 423.604 1234.65 423.184 L1244.36 412.364 Q1249.67 406.386 1249.67 401.174 Q1249.67 397.789 1247.89 395.368 Q1246.13 392.947 1242.9 392.947 Q1240.67 392.947 1238.8 394.306 Q1236.92 395.665 1236.06 398.086 Q1236.2 398.036 1236.72 398.036 Q1237.98 398.036 1238.67 398.827 Q1239.39 399.617 1239.39 400.68 Q1239.39 402.038 1238.5 402.705 Q1237.64 403.347 1236.77 403.347 Q1236.43 403.347 1235.96 403.273 Q1235.51 403.199 1234.8 402.508 Q1234.08 401.791 1234.08 400.531 Q1234.08 396.999 1236.75 394.183 Q1239.44 391.366 1243.54 391.366 Q1248.18 391.366 1251.22 394.133 Q1254.29 396.875 1254.29 401.174 Q1254.29 402.68 1253.82 404.064 Q1253.37 405.423 1252.75 406.485 Q1252.16 407.547 1250.53 409.252 Q1248.9 410.956 1247.59 412.167 Q1246.28 413.377 1243.34 415.946 L1237.98 421.159 L1247.1 421.159 Q1251.54 421.159 1251.89 420.763 Q1252.38 420.047 1253 416.267 L1254.29 416.267 L1252.85 425.062 L1234.08 425.062 Z" fill="#000000" fill-rule="nonzero" fill-opacity="1" /><path clip-path="url(#clip830)" d="M1233.29 87.4751 Q1233.29 85.9682 1234.15 85.2518 Q1235.02 84.5354 1236.13 84.5354 Q1237.29 84.5354 1238.11 85.3012 Q1238.95 86.0423 1238.95 87.3516 Q1238.95 88.7597 1237.96 89.5502 Q1236.99 90.3407 1235.61 90.1431 Q1236.82 92.1688 1239.04 93.0828 Q1241.29 93.9968 1243.37 93.9968 Q1245.54 93.9968 1247.3 92.1194 Q1249.07 90.2419 1249.07 85.6471 Q1249.07 81.744 1247.54 79.4959 Q1246.04 77.2479 1243.05 77.2479 L1240.82 77.2479 Q1240.06 77.2479 1239.83 77.1738 Q1239.61 77.0997 1239.61 76.6798 Q1239.61 76.1857 1240.38 76.0869 Q1241.14 76.0869 1242.35 75.9387 Q1245.29 75.8398 1246.85 73.2954 Q1248.26 70.9239 1248.26 67.5395 Q1248.26 64.4516 1246.78 63.167 Q1245.32 61.8577 1243.42 61.8577 Q1241.64 61.8577 1239.69 62.5988 Q1237.74 63.3399 1236.67 64.9951 Q1239.81 64.9951 1239.81 67.5395 Q1239.81 68.6512 1239.09 69.3923 Q1238.4 70.1087 1237.24 70.1087 Q1236.13 70.1087 1235.39 69.417 Q1234.65 68.7006 1234.65 67.4901 Q1234.65 64.5998 1237.22 62.5988 Q1239.81 60.5979 1243.61 60.5979 Q1247.37 60.5979 1250.14 62.5741 Q1252.93 64.5504 1252.93 67.5889 Q1252.93 70.578 1250.95 73.0237 Q1248.98 75.4693 1245.84 76.4821 Q1249.69 77.2479 1251.99 79.8665 Q1254.29 82.4603 1254.29 85.6471 Q1254.29 89.5996 1251.17 92.5146 Q1248.06 95.4049 1243.52 95.4049 Q1239.32 95.4049 1236.3 93.1322 Q1233.29 90.8595 1233.29 87.4751 Z" fill="#000000" fill-rule="nonzero" fill-opacity="1" /><polyline clip-path="url(#clip833)" style="stroke:#009af9; stroke-linecap:round; stroke-linejoin:round; stroke-width:4; stroke-opacity:1; fill:none" points="1337.85,1069.32 1994.75,407.782 "/>
<polyline clip-path="url(#clip833)" style="stroke:#009af9; stroke-linecap:round; stroke-linejoin:round; stroke-width:4; stroke-opacity:1; fill:none" points="1956.61,420.644 1994.75,407.782 1982.15,446.01 "/>
<polyline clip-path="url(#clip833)" style="stroke:#009af9; stroke-linecap:round; stroke-linejoin:round; stroke-width:4; stroke-opacity:1; fill:none" points="1994.75,407.782 1337.85,1069.32 "/>
<polyline clip-path="url(#clip833)" style="stroke:#e26f46; stroke-linecap:round; stroke-linejoin:round; stroke-width:4; stroke-opacity:1; fill:none" stroke-dasharray="16, 10" points="1337.85,1069.32 2323.2,77.0133 "/>
<polyline clip-path="url(#clip833)" style="stroke:#e26f46; stroke-linecap:round; stroke-linejoin:round; stroke-width:4; stroke-opacity:1; fill:none" points="2285.06,89.8754 2323.2,77.0133 2310.6,115.242 "/>
<polyline clip-path="url(#clip833)" style="stroke:#e26f46; stroke-linecap:round; stroke-linejoin:round; stroke-width:4; stroke-opacity:1; fill:none" stroke-dasharray="16, 10" points="2323.2,77.0133 1337.85,1069.32 "/>
<path clip-path="url(#clip830)" d="M1343.1 237.826 L1628.06 237.826 L1628.06 82.3056 L1343.1 82.3056  Z" fill="#ffffff" fill-rule="evenodd" fill-opacity="1"/>
<polyline clip-path="url(#clip830)" style="stroke:#000000; stroke-linecap:round; stroke-linejoin:round; stroke-width:4; stroke-opacity:1; fill:none" points="1343.1,237.826 1628.06,237.826 1628.06,82.3056 1343.1,82.3056 1343.1,237.826 "/>
<polyline clip-path="url(#clip830)" style="stroke:#009af9; stroke-linecap:round; stroke-linejoin:round; stroke-width:4; stroke-opacity:1; fill:none" points="1354.71,134.146 1424.34,134.146 "/>
<path clip-path="url(#clip830)" d="M1461.88 120.617 Q1461.88 120.978 1461.52 121.092 Q1459.65 121.732 1458.8 123.519 Q1458.68 123.814 1458.36 123.814 Q1458.14 123.814 1458.01 123.666 Q1457.86 123.502 1457.86 123.306 Q1457.86 123.175 1457.9 123.109 Q1458.37 122.01 1459.41 121.125 L1448.42 121.125 Q1448.22 121.125 1448.08 120.978 Q1447.91 120.814 1447.91 120.617 Q1447.91 120.42 1448.08 120.273 Q1448.22 120.125 1448.42 120.125 L1459.41 120.125 Q1458.37 119.24 1457.9 118.141 Q1457.86 118.075 1457.86 117.944 Q1457.86 117.748 1458.01 117.6 Q1458.14 117.436 1458.36 117.436 Q1458.68 117.436 1458.8 117.731 Q1459.65 119.518 1461.52 120.158 Q1461.88 120.273 1461.88 120.617 Z" fill="#000000" fill-rule="nonzero" fill-opacity="1" /><path clip-path="url(#clip830)" d="M1460 132.24 Q1460 132.849 1459.84 134.043 Q1459.67 135.238 1459.27 136.971 Q1458.88 138.704 1458.29 140.531 Q1457.73 142.358 1456.84 144.185 Q1455.95 145.989 1454.89 147.417 Q1453.84 148.846 1452.36 149.736 Q1450.89 150.626 1449.23 150.626 Q1448.45 150.626 1447.7 150.509 Q1446.95 150.392 1446.02 150.017 Q1445.08 149.643 1444.4 149.034 Q1443.72 148.401 1443.25 147.277 Q1442.79 146.153 1442.79 144.677 Q1442.79 143.155 1443.35 141.117 Q1443.93 139.056 1445.53 134.84 Q1446.35 132.661 1446.35 131.467 Q1446.35 130.928 1446.23 130.6 Q1446.11 130.249 1445.88 130.132 Q1445.64 129.991 1445.5 129.968 Q1445.38 129.944 1445.15 129.944 Q1443.86 129.944 1442.55 131.279 Q1441.24 132.614 1440.3 135.894 Q1440.11 136.479 1440 136.62 Q1439.88 136.76 1439.53 136.76 Q1438.94 136.737 1438.94 136.268 Q1438.94 136.128 1439.11 135.589 Q1439.27 135.027 1439.58 134.184 Q1439.88 133.317 1440.42 132.427 Q1440.96 131.514 1441.61 130.717 Q1442.29 129.921 1443.25 129.406 Q1444.21 128.89 1445.29 128.89 Q1447.05 128.89 1448.13 130.038 Q1449.23 131.162 1449.23 132.825 Q1449.23 133.739 1448.64 135.214 Q1447.66 137.884 1447.21 139.173 Q1446.77 140.461 1446.3 142.288 Q1445.85 144.115 1445.85 145.38 Q1445.85 147.3 1446.74 148.425 Q1447.63 149.549 1449.41 149.549 Q1451.01 149.549 1452.44 148.401 Q1453.89 147.23 1454.85 145.567 Q1455.81 143.881 1456.53 142.007 Q1457.26 140.11 1457.59 138.681 Q1457.94 137.229 1457.94 136.549 Q1457.94 134.184 1456.32 132.638 Q1455.88 132.193 1455.71 131.912 Q1455.55 131.631 1455.55 131.186 Q1455.55 130.366 1456.28 129.64 Q1457.03 128.89 1457.89 128.89 Q1458.69 128.89 1459.34 129.687 Q1460 130.483 1460 132.24 Z" fill="#000000" fill-rule="nonzero" fill-opacity="1" /><polyline clip-path="url(#clip830)" style="stroke:#e26f46; stroke-linecap:round; stroke-linejoin:round; stroke-width:4; stroke-opacity:1; fill:none" stroke-dasharray="16, 10" points="1354.71,185.986 1424.34,185.986 "/>
<path clip-path="url(#clip830)" d="M1470 168.874 L1466.98 181.101 Q1466.77 181.874 1466.63 181.967 Q1466.51 182.061 1466.14 182.061 Q1465.41 182.061 1465.41 181.569 Q1465.41 181.522 1465.48 180.913 Q1465.55 180.281 1465.55 179.133 Q1465.55 174.894 1463.49 172.388 Q1461.45 169.881 1457.82 169.881 Q1454.68 169.881 1451.52 171.474 Q1448.38 173.067 1446.13 175.667 Q1444.45 177.634 1443.2 180.117 Q1441.99 182.6 1441.4 184.872 Q1440.84 187.144 1440.58 188.854 Q1440.32 190.563 1440.32 191.805 Q1440.32 193.608 1440.7 195.131 Q1441.1 196.653 1441.8 197.731 Q1442.5 198.785 1443.39 199.604 Q1444.31 200.401 1445.36 200.869 Q1446.44 201.338 1447.51 201.572 Q1448.59 201.783 1449.72 201.783 Q1454.24 201.783 1458.55 198.269 Q1461.97 195.388 1463.39 190.68 Q1463.51 190.212 1464 190.212 Q1464.59 190.212 1464.59 190.68 Q1464.59 190.774 1464.47 191.243 Q1464.36 191.688 1464 192.601 Q1463.65 193.491 1463.11 194.498 Q1462.58 195.505 1461.57 196.77 Q1460.56 198.035 1459.32 199.136 Q1457.21 200.963 1454.54 202.111 Q1451.87 203.258 1448.94 203.258 Q1445.29 203.258 1442.34 201.642 Q1439.39 200.026 1437.65 197.005 Q1435.94 193.983 1435.94 190.118 Q1435.94 186.043 1437.82 182.038 Q1439.69 178.032 1442.67 175.058 Q1445.64 172.083 1449.58 170.233 Q1453.51 168.382 1457.45 168.382 Q1458.94 168.382 1460.28 168.78 Q1461.61 169.179 1462.41 169.671 Q1463.23 170.162 1463.96 170.888 Q1464.68 171.591 1464.92 171.919 Q1465.18 172.247 1465.41 172.645 L1468.76 168.968 Q1469.34 168.382 1469.48 168.382 Q1469.77 168.382 1469.88 168.546 Q1470 168.71 1470 168.874 Z" fill="#000000" fill-rule="nonzero" fill-opacity="1" /><path clip-path="url(#clip830)" d="M1495.84 172.734 Q1495.84 173.094 1495.48 173.209 Q1493.61 173.848 1492.75 175.636 Q1492.64 175.931 1492.31 175.931 Q1492.1 175.931 1491.97 175.783 Q1491.82 175.619 1491.82 175.422 Q1491.82 175.291 1491.85 175.226 Q1492.33 174.127 1493.36 173.242 L1482.38 173.242 Q1482.18 173.242 1482.03 173.094 Q1481.87 172.93 1481.87 172.734 Q1481.87 172.537 1482.03 172.389 Q1482.18 172.242 1482.38 172.242 L1493.36 172.242 Q1492.33 171.356 1491.85 170.258 Q1491.82 170.192 1491.82 170.061 Q1491.82 169.864 1491.97 169.717 Q1492.1 169.553 1492.31 169.553 Q1492.64 169.553 1492.75 169.848 Q1493.61 171.635 1495.48 172.274 Q1495.84 172.389 1495.84 172.734 Z" fill="#000000" fill-rule="nonzero" fill-opacity="1" /><path clip-path="url(#clip830)" d="M1493.96 184.356 Q1493.96 184.965 1493.79 186.16 Q1493.63 187.354 1493.23 189.088 Q1492.83 190.821 1492.25 192.648 Q1491.68 194.475 1490.79 196.302 Q1489.9 198.105 1488.85 199.534 Q1487.8 200.963 1486.32 201.853 Q1484.84 202.743 1483.18 202.743 Q1482.41 202.743 1481.66 202.626 Q1480.91 202.509 1479.97 202.134 Q1479.04 201.759 1478.36 201.15 Q1477.68 200.518 1477.21 199.394 Q1476.74 198.269 1476.74 196.794 Q1476.74 195.271 1477.3 193.234 Q1477.89 191.172 1479.48 186.956 Q1480.3 184.778 1480.3 183.583 Q1480.3 183.045 1480.18 182.717 Q1480.07 182.365 1479.83 182.248 Q1479.6 182.108 1479.46 182.084 Q1479.34 182.061 1479.11 182.061 Q1477.82 182.061 1476.51 183.396 Q1475.19 184.731 1474.26 188.01 Q1474.07 188.596 1473.95 188.736 Q1473.84 188.877 1473.48 188.877 Q1472.9 188.854 1472.9 188.385 Q1472.9 188.245 1473.06 187.706 Q1473.23 187.144 1473.53 186.3 Q1473.84 185.434 1474.37 184.544 Q1474.91 183.63 1475.57 182.834 Q1476.25 182.038 1477.21 181.522 Q1478.17 181.007 1479.25 181.007 Q1481 181.007 1482.08 182.155 Q1483.18 183.279 1483.18 184.942 Q1483.18 185.855 1482.6 187.331 Q1481.61 190.001 1481.17 191.289 Q1480.72 192.578 1480.25 194.405 Q1479.81 196.232 1479.81 197.496 Q1479.81 199.417 1480.7 200.541 Q1481.59 201.666 1483.37 201.666 Q1484.96 201.666 1486.39 200.518 Q1487.84 199.347 1488.8 197.684 Q1489.76 195.997 1490.49 194.124 Q1491.22 192.226 1491.54 190.798 Q1491.89 189.345 1491.89 188.666 Q1491.89 186.3 1490.28 184.755 Q1489.83 184.31 1489.67 184.028 Q1489.51 183.747 1489.51 183.302 Q1489.51 182.483 1490.23 181.757 Q1490.98 181.007 1491.85 181.007 Q1492.64 181.007 1493.3 181.803 Q1493.96 182.6 1493.96 184.356 Z" fill="#000000" fill-rule="nonzero" fill-opacity="1" /><path clip-path="url(#clip830)" d="M1510.87 194.92 Q1510.91 194.334 1511.83 194.334 L1541.22 194.334 Q1542.6 194.334 1542.63 194.873 Q1542.63 195.459 1541.32 195.435 L1512.16 195.435 Q1510.87 195.459 1510.87 194.92 M1510.87 185.551 Q1510.87 184.965 1511.87 184.989 L1541.18 184.989 Q1542.6 184.989 1542.63 185.551 Q1542.63 186.09 1541.41 186.09 L1511.83 186.09 Q1510.87 186.09 1510.87 185.551 Z" fill="#000000" fill-rule="nonzero" fill-opacity="1" /><path clip-path="url(#clip830)" d="M1584.85 202.251 Q1584.85 202.696 1584.33 202.743 L1583.28 202.743 Q1582.2 202.743 1581.73 202.579 Q1581.26 202.415 1580.72 201.666 Q1580.4 201.197 1579.58 199.019 Q1578.78 196.817 1577.61 193.491 Q1576.46 190.165 1575.69 188.198 L1564.14 201.83 Q1563.34 202.837 1562.55 202.837 Q1561.96 202.837 1561.54 202.439 Q1561.12 202.04 1561.12 201.431 Q1561.12 200.986 1561.28 200.729 Q1561.47 200.471 1561.96 199.956 L1575.22 186.816 L1570.56 173.769 Q1569.67 171.357 1569.15 170.748 Q1568.66 170.139 1567.44 169.928 Q1567 169.811 1567 169.436 Q1567 168.921 1567.86 168.921 Q1572.5 168.921 1573.72 172.317 L1583.51 199.604 Q1584.05 201.174 1584.61 201.83 Q1584.85 202.134 1584.85 202.251 Z" fill="#000000" fill-rule="nonzero" fill-opacity="1" /><path clip-path="url(#clip830)" d="M1614.73 172.734 Q1614.73 173.094 1614.37 173.209 Q1612.5 173.848 1611.64 175.636 Q1611.53 175.931 1611.2 175.931 Q1610.99 175.931 1610.86 175.783 Q1610.71 175.619 1610.71 175.422 Q1610.71 175.291 1610.74 175.226 Q1611.22 174.127 1612.25 173.242 L1601.27 173.242 Q1601.07 173.242 1600.92 173.094 Q1600.76 172.93 1600.76 172.734 Q1600.76 172.537 1600.92 172.389 Q1601.07 172.242 1601.27 172.242 L1612.25 172.242 Q1611.22 171.356 1610.74 170.258 Q1610.71 170.192 1610.71 170.061 Q1610.71 169.864 1610.86 169.717 Q1610.99 169.553 1611.2 169.553 Q1611.53 169.553 1611.64 169.848 Q1612.5 171.635 1614.37 172.274 Q1614.73 172.389 1614.73 172.734 Z" fill="#000000" fill-rule="nonzero" fill-opacity="1" /><path clip-path="url(#clip830)" d="M1612.85 184.356 Q1612.85 184.965 1612.68 186.16 Q1612.52 187.354 1612.12 189.088 Q1611.72 190.821 1611.14 192.648 Q1610.57 194.475 1609.68 196.302 Q1608.79 198.105 1607.74 199.534 Q1606.69 200.963 1605.21 201.853 Q1603.73 202.743 1602.07 202.743 Q1601.3 202.743 1600.55 202.626 Q1599.8 202.509 1598.86 202.134 Q1597.93 201.759 1597.25 201.15 Q1596.57 200.518 1596.1 199.394 Q1595.63 198.269 1595.63 196.794 Q1595.63 195.271 1596.19 193.234 Q1596.78 191.172 1598.37 186.956 Q1599.19 184.778 1599.19 183.583 Q1599.19 183.045 1599.07 182.717 Q1598.96 182.365 1598.72 182.248 Q1598.49 182.108 1598.35 182.084 Q1598.23 182.061 1598 182.061 Q1596.71 182.061 1595.4 183.396 Q1594.08 184.731 1593.15 188.01 Q1592.96 188.596 1592.84 188.736 Q1592.73 188.877 1592.37 188.877 Q1591.79 188.854 1591.79 188.385 Q1591.79 188.245 1591.95 187.706 Q1592.12 187.144 1592.42 186.3 Q1592.73 185.434 1593.26 184.544 Q1593.8 183.63 1594.46 182.834 Q1595.14 182.038 1596.1 181.522 Q1597.06 181.007 1598.14 181.007 Q1599.89 181.007 1600.97 182.155 Q1602.07 183.279 1602.07 184.942 Q1602.07 185.855 1601.49 187.331 Q1600.5 190.001 1600.06 191.289 Q1599.61 192.578 1599.14 194.405 Q1598.7 196.232 1598.7 197.496 Q1598.7 199.417 1599.59 200.541 Q1600.48 201.666 1602.26 201.666 Q1603.85 201.666 1605.28 200.518 Q1606.73 199.347 1607.69 197.684 Q1608.65 195.997 1609.38 194.124 Q1610.11 192.226 1610.43 190.798 Q1610.78 189.345 1610.78 188.666 Q1610.78 186.3 1609.17 184.755 Q1608.72 184.31 1608.56 184.028 Q1608.4 183.747 1608.4 183.302 Q1608.4 182.483 1609.12 181.757 Q1609.87 181.007 1610.74 181.007 Q1611.53 181.007 1612.19 181.803 Q1612.85 182.6 1612.85 184.356 Z" fill="#000000" fill-rule="nonzero" fill-opacity="1" /></svg>
