<?xml version="1.0" encoding="UTF-8" standalone="no"?><!DOCTYPE svg PUBLIC "-//W3C//DTD SVG 1.1//EN" "http://www.w3.org/Graphics/SVG/1.1/DTD/svg11.dtd"><!-- Generated by graphviz version 2.40.1 (20161225.0304)
 --><!-- Title: Hierarchy Pages: 1 --><svg xmlns="http://www.w3.org/2000/svg" xmlns:xlink="http://www.w3.org/1999/xlink" width="457pt" height="188pt" viewBox="0.00 0.00 457.32 188.00">
<g id="graph0" class="graph" transform="scale(1 1) rotate(0) translate(4 184)">
<title>Hierarchy</title>
<polygon fill="#ffffff" stroke="transparent" points="-4,4 -4,-184 453.3247,-184 453.3247,4 -4,4"/>
<!-- 111111 -->
<g id="node1" class="node">
<title>111111</title>
<ellipse fill="none" stroke="#000000" cx="224.6624" cy="-162" rx="40.0147" ry="18"/>
<text text-anchor="middle" x="224.6624" y="-157.8" font-family="Times,serif" font-size="14.00" fill="#000000">111111</text>
</g>
<!-- 101111 -->
<g id="node2" class="node">
<title>101111</title>
<ellipse fill="none" stroke="#000000" cx="166.6624" cy="-90" rx="40.0147" ry="18"/>
<text text-anchor="middle" x="166.6624" y="-85.8" font-family="Times,serif" font-size="14.00" fill="#000000">101111</text>
</g>
<!-- 111111&#45;&gt;101111 -->
<g id="edge1" class="edge">
<title>111111-&gt;101111</title>
<path fill="none" stroke="#000000" d="M210.9172,-144.937C203.694,-135.9703 194.7057,-124.8124 186.7201,-114.8993"/>
<polygon fill="#000000" stroke="#000000" points="189.3079,-112.5324 180.3089,-106.9405 183.8566,-116.9237 189.3079,-112.5324"/>
</g>
<!-- 011111 -->
<g id="node3" class="node">
<title>011111</title>
<ellipse fill="none" stroke="#000000" cx="282.6624" cy="-90" rx="40.0147" ry="18"/>
<text text-anchor="middle" x="282.6624" y="-85.8" font-family="Times,serif" font-size="14.00" fill="#000000">011111</text>
</g>
<!-- 111111&#45;&gt;011111 -->
<g id="edge2" class="edge">
<title>111111-&gt;011111</title>
<path fill="none" stroke="#000000" d="M238.4075,-144.937C245.6307,-135.9703 254.619,-124.8124 262.6046,-114.8993"/>
<polygon fill="#000000" stroke="#000000" points="265.4681,-116.9237 269.0158,-106.9405 260.0168,-112.5324 265.4681,-116.9237"/>
</g>
<!-- A:101101 -->
<g id="node4" class="node">
<title>A:101101</title>
<ellipse fill="none" stroke="#000000" cx="49.6624" cy="-18" rx="49.8252" ry="18"/>
<text text-anchor="middle" x="49.6624" y="-13.8" font-family="Times,serif" font-size="14.00" fill="#000000">A:101101</text>
</g>
<!-- 101111&#45;&gt;A:101101 -->
<g id="edge3" class="edge">
<title>101111-&gt;A:101101</title>
<path fill="none" stroke="#000000" d="M142.9857,-75.4297C125.9231,-64.9297 102.6464,-50.6056 83.6083,-38.8898"/>
<polygon fill="#000000" stroke="#000000" points="85.2745,-35.8056 74.9236,-33.5454 81.6058,-41.7672 85.2745,-35.8056"/>
</g>
<!-- B:101110 -->
<g id="node5" class="node">
<title>B:101110</title>
<ellipse fill="none" stroke="#000000" cx="166.6624" cy="-18" rx="49.2628" ry="18"/>
<text text-anchor="middle" x="166.6624" y="-13.8" font-family="Times,serif" font-size="14.00" fill="#000000">B:101110</text>
</g>
<!-- 101111&#45;&gt;B:101110 -->
<g id="edge4" class="edge">
<title>101111-&gt;B:101110</title>
<path fill="none" stroke="#000000" d="M166.6624,-71.8314C166.6624,-64.131 166.6624,-54.9743 166.6624,-46.4166"/>
<polygon fill="#000000" stroke="#000000" points="170.1625,-46.4132 166.6624,-36.4133 163.1625,-46.4133 170.1625,-46.4132"/>
</g>
<!-- C:010111 -->
<g id="node6" class="node">
<title>C:010111</title>
<ellipse fill="none" stroke="#000000" cx="282.6624" cy="-18" rx="49.2628" ry="18"/>
<text text-anchor="middle" x="282.6624" y="-13.8" font-family="Times,serif" font-size="14.00" fill="#000000">C:010111</text>
</g>
<!-- 011111&#45;&gt;C:010111 -->
<g id="edge5" class="edge">
<title>011111-&gt;C:010111</title>
<path fill="none" stroke="#000000" d="M282.6624,-71.8314C282.6624,-64.131 282.6624,-54.9743 282.6624,-46.4166"/>
<polygon fill="#000000" stroke="#000000" points="286.1625,-46.4132 282.6624,-36.4133 279.1625,-46.4133 286.1625,-46.4132"/>
</g>
<!-- D:011011 -->
<g id="node7" class="node">
<title>D:011011</title>
<ellipse fill="none" stroke="#000000" cx="399.6624" cy="-18" rx="49.8252" ry="18"/>
<text text-anchor="middle" x="399.6624" y="-13.8" font-family="Times,serif" font-size="14.00" fill="#000000">D:011011</text>
</g>
<!-- 011111&#45;&gt;D:011011 -->
<g id="edge6" class="edge">
<title>011111-&gt;D:011011</title>
<path fill="none" stroke="#000000" d="M306.3391,-75.4297C323.4016,-64.9297 346.6783,-50.6056 365.7164,-38.8898"/>
<polygon fill="#000000" stroke="#000000" points="367.7189,-41.7672 374.4012,-33.5454 364.0502,-35.8056 367.7189,-41.7672"/>
</g>
</g>
</svg>