<?xml version="1.0" encoding="UTF-8" standalone="no"?><!DOCTYPE svg PUBLIC "-//W3C//DTD SVG 1.1//EN" "http://www.w3.org/Graphics/SVG/1.1/DTD/svg11.dtd"><!-- Generated by graphviz version 2.40.1 (20161225.0304)
 --><!-- Title: Modular Pages: 1 --><svg xmlns="http://www.w3.org/2000/svg" xmlns:xlink="http://www.w3.org/1999/xlink" width="270pt" height="116pt" viewBox="0.00 0.00 269.86 116.00">
<g id="graph0" class="graph" transform="scale(1 1) rotate(0) translate(4 112)">
<title>Modular</title>
<polygon fill="#ffffff" stroke="transparent" points="-4,4 -4,-112 265.8621,-112 265.8621,4 -4,4"/>
<!-- 111000 -->
<g id="node1" class="node">
<title>111000</title>
<ellipse fill="none" stroke="#000000" cx="60.931" cy="-90" rx="40.0147" ry="18"/>
<text text-anchor="middle" x="60.931" y="-85.8" font-family="Times,serif" font-size="14.00" fill="#000000">111000</text>
</g>
<!-- A,B: 111000 -->
<g id="node2" class="node">
<title>A,B: 111000</title>
<ellipse fill="none" stroke="#000000" cx="60.931" cy="-18" rx="60.8622" ry="18"/>
<text text-anchor="middle" x="60.931" y="-13.8" font-family="Times,serif" font-size="14.00" fill="#000000">A,B: 111000</text>
</g>
<!-- 111000&#45;&gt;A,B: 111000 -->
<g id="edge1" class="edge">
<title>111000-&gt;A,B: 111000</title>
<path fill="none" stroke="#000000" d="M60.931,-71.8314C60.931,-64.131 60.931,-54.9743 60.931,-46.4166"/>
<polygon fill="#000000" stroke="#000000" points="64.4311,-46.4132 60.931,-36.4133 57.4311,-46.4133 64.4311,-46.4132"/>
</g>
<!-- 000111 -->
<g id="node3" class="node">
<title>000111</title>
<ellipse fill="none" stroke="#000000" cx="200.931" cy="-90" rx="40.0147" ry="18"/>
<text text-anchor="middle" x="200.931" y="-85.8" font-family="Times,serif" font-size="14.00" fill="#000000">000111</text>
</g>
<!-- C,D: 000111 -->
<g id="node4" class="node">
<title>C,D: 000111</title>
<ellipse fill="none" stroke="#000000" cx="200.931" cy="-18" rx="60.8622" ry="18"/>
<text text-anchor="middle" x="200.931" y="-13.8" font-family="Times,serif" font-size="14.00" fill="#000000">C,D: 000111</text>
</g>
<!-- 000111&#45;&gt;C,D: 000111 -->
<g id="edge2" class="edge">
<title>000111-&gt;C,D: 000111</title>
<path fill="none" stroke="#000000" d="M200.931,-71.8314C200.931,-64.131 200.931,-54.9743 200.931,-46.4166"/>
<polygon fill="#000000" stroke="#000000" points="204.4311,-46.4132 200.931,-36.4133 197.4311,-46.4133 204.4311,-46.4132"/>
</g>
</g>
</svg>