<?xml version="1.0" encoding="UTF-8" standalone="no"?><!DOCTYPE svg PUBLIC "-//W3C//DTD SVG 1.1//EN" "http://www.w3.org/Graphics/SVG/1.1/DTD/svg11.dtd"><!-- Generated by graphviz version 2.40.1 (20161225.0304)
 --><!-- Title: Star Pages: 1 --><svg xmlns="http://www.w3.org/2000/svg" xmlns:xlink="http://www.w3.org/1999/xlink" width="477pt" height="116pt" viewBox="0.00 0.00 477.15 116.00">
<g id="graph0" class="graph" transform="scale(1 1) rotate(0) translate(4 112)">
<title>Star</title>
<polygon fill="#ffffff" stroke="transparent" points="-4,4 -4,-112 473.1532,-112 473.1532,4 -4,4"/>
<!-- 111111 -->
<g id="node1" class="node">
<title>111111</title>
<ellipse fill="none" stroke="#000000" cx="234.0766" cy="-90" rx="40.0147" ry="18"/>
<text text-anchor="middle" x="234.0766" y="-85.8" font-family="Times,serif" font-size="14.00" fill="#000000">111111</text>
</g>
<!-- A: 110111 -->
<g id="node2" class="node">
<title>A: 110111</title>
<ellipse fill="none" stroke="#000000" cx="52.0766" cy="-18" rx="52.1533" ry="18"/>
<text text-anchor="middle" x="52.0766" y="-13.8" font-family="Times,serif" font-size="14.00" fill="#000000">A: 110111</text>
</g>
<!-- 111111&#45;&gt;A: 110111 -->
<g id="edge1" class="edge">
<title>111111-&gt;A: 110111</title>
<path fill="none" stroke="#000000" d="M204.023,-78.1107C174.6175,-66.4777 129.4985,-48.6285 96.0585,-35.3994"/>
<polygon fill="#000000" stroke="#000000" points="97.1097,-32.0514 86.5234,-31.6273 94.5346,-38.5606 97.1097,-32.0514"/>
</g>
<!-- B: 111011 -->
<g id="node3" class="node">
<title>B: 111011</title>
<ellipse fill="none" stroke="#000000" cx="174.0766" cy="-18" rx="51.591" ry="18"/>
<text text-anchor="middle" x="174.0766" y="-13.8" font-family="Times,serif" font-size="14.00" fill="#000000">B: 111011</text>
</g>
<!-- 111111&#45;&gt;B: 111011 -->
<g id="edge2" class="edge">
<title>111111-&gt;B: 111011</title>
<path fill="none" stroke="#000000" d="M219.8574,-72.937C212.4935,-64.1003 203.3561,-53.1354 195.1858,-43.3311"/>
<polygon fill="#000000" stroke="#000000" points="197.7011,-40.8823 188.6105,-35.4407 192.3236,-45.3636 197.7011,-40.8823"/>
</g>
<!-- C: 111101 -->
<g id="node4" class="node">
<title>C: 111101</title>
<ellipse fill="none" stroke="#000000" cx="295.0766" cy="-18" rx="51.591" ry="18"/>
<text text-anchor="middle" x="295.0766" y="-13.8" font-family="Times,serif" font-size="14.00" fill="#000000">C: 111101</text>
</g>
<!-- 111111&#45;&gt;C: 111101 -->
<g id="edge3" class="edge">
<title>111111-&gt;C: 111101</title>
<path fill="none" stroke="#000000" d="M248.5327,-72.937C256.0194,-64.1003 265.3091,-53.1354 273.6155,-43.3311"/>
<polygon fill="#000000" stroke="#000000" points="276.5067,-45.333 280.3005,-35.4407 271.1658,-40.8081 276.5067,-45.333"/>
</g>
<!-- D: 111110 -->
<g id="node5" class="node">
<title>D: 111110</title>
<ellipse fill="none" stroke="#000000" cx="417.0766" cy="-18" rx="52.1533" ry="18"/>
<text text-anchor="middle" x="417.0766" y="-13.8" font-family="Times,serif" font-size="14.00" fill="#000000">D: 111110</text>
</g>
<!-- 111111&#45;&gt;D: 111110 -->
<g id="edge4" class="edge">
<title>111111-&gt;D: 111110</title>
<path fill="none" stroke="#000000" d="M264.2953,-78.1107C293.8624,-66.4777 339.2293,-48.6285 372.8531,-35.3994"/>
<polygon fill="#000000" stroke="#000000" points="374.4163,-38.5456 382.4406,-31.6273 371.8534,-32.0316 374.4163,-38.5456"/>
</g>
</g>
</svg>